<?xml version="1.0" encoding="utf-8"?>
<!-- Generator: Adobe Illustrator 21.1.0, SVG Export Plug-In . SVG Version: 6.00 Build 0)  -->
<svg version="1.1" id="Layer_1" xmlns="http://www.w3.org/2000/svg" xmlns:xlink="http://www.w3.org/1999/xlink" x="0px" y="0px"
	 viewBox="0 0 50 50" style="enable-background:new 0 0 50 50;" xml:space="preserve">
<style type="text/css">
	.st0{fill:#ADADAD;}
	.st1{fill:#4F4F4F;}
</style>
<g>
	<circle class="st0" cx="25" cy="25" r="25"/>
	<g>
		<path class="st1" d="M31.2,12.5l-3.2,0c-3.6,0-6,2.4-6,6.2v2.8h-3.3c-0.3,0-0.5,0.2-0.5,0.5v4.1c0,0.3,0.2,0.5,0.5,0.5H22V37
			c0,0.3,0.2,0.5,0.5,0.5h4.3c0.3,0,0.5-0.2,0.5-0.5V26.6h3.8c0.3,0,0.5-0.2,0.5-0.5l0-4.1c0-0.1-0.1-0.3-0.1-0.4s-0.2-0.1-0.4-0.1
			h-3.8v-2.4c0-1.2,0.3-1.7,1.8-1.7l2.2,0c0.3,0,0.5-0.2,0.5-0.5V13C31.8,12.7,31.5,12.5,31.2,12.5z"/>
	</g>
</g>
</svg>
