<?xml version="1.0" encoding="utf-8"?>
<!-- Generator: Adobe Illustrator 21.1.0, SVG Export Plug-In . SVG Version: 6.00 Build 0)  -->
<svg version="1.1" id="Layer_1" xmlns="http://www.w3.org/2000/svg" xmlns:xlink="http://www.w3.org/1999/xlink" x="0px" y="0px"
	 viewBox="0 0 50 50" style="enable-background:new 0 0 50 50;" xml:space="preserve">
<style type="text/css">
	.st0{fill:#ADADAD;}
	.st1{fill:#4F4F4F;}
</style>
<g>
	<circle class="st0" cx="25" cy="25" r="25"/>
	<path class="st1" d="M32.7,12.5H17.3c-2.7,0-4.8,2.1-4.8,4.8v5.1v10.3c0,2.7,2.1,4.8,4.8,4.8h15.4c2.7,0,4.8-2.1,4.8-4.8V22.4v-5.1
		C37.5,14.6,35.4,12.5,32.7,12.5z M30.4,15.3h3.7l0.5,0v0.6v3.7h-4.2V15.3z M21.4,22.4c0.8-1.1,2.1-1.9,3.6-1.9s2.8,0.7,3.6,1.9
		c0.5,0.7,0.8,1.6,0.8,2.6c0,2.4-2,4.4-4.4,4.4s-4.4-2-4.4-4.4C20.6,24,20.9,23.1,21.4,22.4z M35.3,32.7c0,1.3-1.2,2.5-2.5,2.5H17.3
		c-1.3,0-2.5-1.2-2.5-2.5V22.4h3.9c-0.3,0.6-0.5,1.6-0.5,2.6c0,3.8,3.1,6.9,6.9,6.9c3.8,0,6.9-3.1,6.9-6.9c0-0.9-0.2-1.9-0.5-2.6
		h3.9V32.7z"/>
</g>
</svg>
