<?xml version="1.0" encoding="utf-8"?>
<!-- Generator: Adobe Illustrator 21.1.0, SVG Export Plug-In . SVG Version: 6.00 Build 0)  -->
<svg version="1.1" id="Layer_1" xmlns="http://www.w3.org/2000/svg" xmlns:xlink="http://www.w3.org/1999/xlink" x="0px" y="0px"
	 viewBox="0 0 246 70" style="enable-background:new 0 0 246 70;" xml:space="preserve">
<style type="text/css">
	.st0{fill:#0080B9;}
	.st1{fill:#FFA100;}
</style>
<g>
	<g>
		<path id="XMLID_63_" class="st0" d="M197.7,33.1c0-0.5,0.1-0.7,0.1-1c0-5.4,0.1-10.8,0.1-16.2c0-0.8,0.2-1.6,0.2-2.3
			c0-0.8,0.4-1.1,1.1-1.2c3-0.1,5.9-0.2,8.9-0.2c0.4,0,0.9,0.2,1.4,0.2c0,0.5,0,0.9,0,1.3c-0.2,11.3-0.3,22.5-0.5,33.8
			c-0.1,4.8-0.3,9.5-0.3,14.3c0,1.1-0.2,1.6-1.4,1.6c-2.5-0.1-5,0-7.5,0c-0.8,0-1.2-0.4-1.1-1.2c0.1-0.8-0.1-1.6-0.2-2.6
			c-2.5,2.2-5.3,3.3-8.4,3.6c-6.2,0.7-12-2.3-14.6-8c-2.8-6.2-3-12.5,0.8-18.5c4-6.4,13.4-9.2,20.1-4.6
			C196.7,32.4,197.1,32.7,197.7,33.1z M191.6,53.5c4.1,0,6.6-2.6,6.7-6.9c0.1-4.1-2.7-7.2-6.6-7.1c-3.9,0-6.5,2.2-6.7,7
			C184.9,50.7,187.5,53.5,191.6,53.5z"/>
		<path id="XMLID_60_" class="st0" d="M135.6,46.4c0-9.4,7.3-16.8,16.9-16.8c10.2,0,17.2,7.1,17.3,17.4c0,9.6-7.1,16.8-17,16.8
			C142.5,63.9,135.6,56.7,135.6,46.4z M159.3,46.7c0-0.1,0-0.5-0.1-0.9c-0.2-2.8-1.7-4.9-4.1-5.6c-3-0.9-6.2,0-7.8,2.1
			c-1.4,1.9-1.6,4.1-1.3,6.4c0.4,2.5,1.5,4.4,4,5.3c2.4,0.9,4.7,0.7,6.8-0.9C158.9,51.5,159.3,49.3,159.3,46.7z"/>
		<path id="XMLID_57_" class="st0" d="M244.5,49.2c-6.7,0-13.1,0-19.6,0c-0.4,2.6,1.6,5,4.3,5.6c3.3,0.7,6.4,0.2,9.4-1.3
			c0.4-0.2,0.8-0.4,1.4-0.8c1.1,2.3,2.2,4.6,3.2,6.9c0.1,0.2-0.3,0.9-0.7,1.1c-2.4,1.7-5.1,2.6-8,3c-3.8,0.5-7.5,0.3-11-1.2
			c-4.3-1.8-7.1-5.1-8.4-9.6c-1.4-4.7-1.1-9.3,0.9-13.8c2.6-6.1,8.1-9.4,14.8-9.4c8.7,0.1,14.6,6.9,14.1,15.1
			C244.9,46,244.7,47.5,244.5,49.2z M224.8,43c3.5,0,7,0,10.5,0c0-2.1-0.3-3.9-2.1-5.1c-1.9-1.2-3.9-1.1-5.8,0.1
			C225.6,39.1,224.8,40.8,224.8,43z"/>
		<path id="XMLID_54_" class="st0" d="M121.6,29.5c3.5,0.1,6.9,0.7,10.1,2.5c1.5,0.8,1.7,1,1.2,2.6c-0.6,2.2-1.3,4.3-2,6.5
			c-0.3,0.9-0.8,1-1.7,0.5c-1.8-0.9-3.6-2-5.6-2.3c-5.5-1-9,2.2-9.1,7.7c-0.1,6.5,5,8.3,9.5,7.2c1.5-0.4,2.9-1.1,4.3-1.7
			c0.7-0.3,1.2-0.4,1.6,0.3c1,1.8,2,3.6,3,5.4c0.1,0.2,0,0.7-0.2,0.9c-1.7,2.3-4.2,3.5-6.9,4.2c-5,1.2-9.9,0.7-14.3-2
			c-4.3-2.6-6.5-6.7-7.3-11.5c-0.9-5.4,0.3-10.3,3.9-14.5c2.6-3,5.9-4.8,9.8-5.4C119.1,29.6,120.4,29.6,121.6,29.5z"/>
	</g>
	<path id="XMLID_46_" class="st0" d="M8,1.4c6.3-0.4,10.7,5.2,8.7,11.1c-0.7,2-2.2,3.4-4.1,4.1c-2.4,1-4.9,1.1-7.4,0.2
		c-2.1-0.8-3.4-2.4-4-4.6c-0.7-2.1-0.6-4.2,0-6.4C2,3.1,4.1,2,6.6,1.5C7.1,1.4,7.6,1.4,8,1.4z"/>
	<g id="XMLID_47_">
		<g>
			<path id="XMLID_28_" class="st1" d="M17.8,45.6c0.2,7.3,0.3,14.5,0.5,21.8c0,1-0.3,1.3-1.2,1.3c-3.8,0.1-7.6,0.3-11.4,0.5
				c-0.9,0.1-1-0.5-1-1.1c-0.4-4.2-0.7-8.5-1-12.7C3.1,45.5,2.6,35.7,2,25.9c-0.1-1.6,0-1.7,1.5-1.7c3.8-0.2,7.7-0.4,11.5-0.5
				c1.7-0.1,1.8,0,1.8,1.7C17.1,32.1,17.5,38.9,17.8,45.6C17.9,45.6,17.8,45.6,17.8,45.6z"/>
			<g id="XMLID_18_">
				<path class="st1" d="M97,54.9c-2-2.2-5.6-3.9-6.2-3.2c-2.5,2.9-6.1,4-10.3,3.7c-3.3,0-5.6-2.8-5.8-6.1
					c20.5-5.4,20.7-7.6,20.6-8.5c-0.2-1-0.4-1.9-0.6-2.8c-2-8-10.2-13-19.5-10.4c-6.7,1.9-11.1,6.1-12.7,12.9
					c-1.3,5.3-0.5,10.4,1.9,15.2c1.7,3.4,4,6.2,7.4,8.1c3.7,2.1,7.7,2.4,11.7,1.8C89,64.7,93.2,62.1,97,58
					C98.3,56.5,98.3,56.4,97,54.9z"/>
				<path class="st1" d="M50.8,41.3c4.3-3.5,8.8-6.7,12.7-10.7c-0.7-0.7-1.2-1.3-1.8-1.7c-2.1-1.5-4.2-2.9-6.3-4.5
					c-1-0.8-1.8-0.6-2.7,0.2c-4.3,3.5-8.6,6.9-12.9,10.4l0,0c-2.7,2.2-3-3.2-2.9-5.3c0-0.3,0-0.7,0.1-1c0.6-8.2,1.2-16.3,1.9-24.5
					c0.1-1-0.4-1.3-1.2-1.4c-1.2-0.1-2.3-0.3-3.5-0.3c-2.4-0.1-4.8-0.2-7.2-0.2c-0.9,0-1.4,0.4-1.4,1.4C25.4,6,25,8.4,24.9,10.8
					C24.2,25.5,23.6,40.3,23,55c-0.1,2.7,0,5.4-0.1,8.1c0,0.8,0.3,1.1,1.1,1.2c1.2,0.1,2.3,0.3,3.5,0.4c2.6,0.2,5.2,0.3,7.6,0.5
					c0.2-3.8,0.5-7.4,0.7-11.1l0,0l0,0c0-0.2,0-0.4,0-0.6c0.3-3,3-6.2,5.4-2.7c0,0.1,0.1,0.1,0.1,0.1c0.1,0.2,0.2,0.4,0.3,0.6
					c2.5,4.9,5.1,9.9,7.6,14.8c0.5,0.9,1.1,1.5,2.2,1.2c2.1-0.5,4.2-0.8,6.2-1.4c1.7-0.5,3.4-1.2,5.4-2c-4.2-7.4-8.3-14.6-12.4-21.7
					C50.4,42.1,50.5,41.6,50.8,41.3z"/>
			</g>
		</g>
	</g>
</g>
</svg>
