<?xml version="1.0" encoding="utf-8"?>
<!-- Generator: Adobe Illustrator 21.1.0, SVG Export Plug-In . SVG Version: 6.00 Build 0)  -->
<svg version="1.1" id="Layer_1" xmlns="http://www.w3.org/2000/svg" xmlns:xlink="http://www.w3.org/1999/xlink" x="0px" y="0px"
	 viewBox="0 0 50 50" style="enable-background:new 0 0 50 50;" xml:space="preserve">
<style type="text/css">
	.st0{fill:#ADADAD;}
	.st1{fill:#4F4F4F;}
</style>
<g>
	<circle class="st0" cx="25" cy="25" r="25"/>
	<g id="surface1">
		<path class="st1" d="M20,36.8c0,0.6-0.3,1-0.8,1c-0.2,0-0.4,0-0.6-0.1l-7.8-3.9c-0.5-0.2-0.8-0.8-0.8-1.4V13.1
			c0-0.5,0.3-0.8,0.7-0.8c0.1,0,0.3,0,0.4,0.1l0.3,0.1h0l8.6,4.3c0,0,0,0,0,0V36.8z M29,13.5l0.5-0.9c0.2-0.3,0.5-0.5,0.9-0.5
			c0.1,0,0.2,0,0.2,0c0.1,0,0.1,0,0.2,0.1l9,4.6c0,0,0,0,0,0l0,0c0,0,0,0,0,0c0,0,0.1,0.1,0,0.1l-9,14.8L30,33.3l-6-11.7L29,13.5z
			 M21.4,29v-9.3l6.4,12.6l-5.8-2.9L21.4,29z M40,36.8c0,0.6-0.4,0.9-0.9,0.9c-0.2,0-0.5-0.1-0.8-0.2L37,36.9L31.3,34L40,19.6V36.8z
			"/>
	</g>
</g>
</svg>
